# xmcd CD database file
#
# Track frame offsets:
#	150
#	26055
#	52457
#	78362
#
# Disc length: 1151 seconds
#
# Revision: 0
# Processed by: cddbd v1.5PL3 Copyright (c) Steve Scherf et al.
# Submitted via: CDex 1.50beta9
#
DISCID=31047d04
DTITLE=及川光博 - ココロノヤミ
DYEAR=2001
DGENRE=JPop
TTITLE0=ココロノヤミ
TTITLE1=邪念オーバードライブ
TTITLE2=ココロノヤミ (Instrumental)
TTITLE3=オマケ　恋泥棒あらわる (2000.12.21 東京国際フォーラムにて)
EXTD=YEAR: 2001/08/29
EXTT0=
EXTT1=
EXTT2=
EXTT3=
PLAYORDER=
